<?xml version="1.0" encoding="UTF-8"?><svg xmlns="http://www.w3.org/2000/svg" xmlns:xlink="http://www.w3.org/1999/xlink" stroke-dasharray="none" shape-rendering="auto" font-family="'Dialog'" width="683" text-rendering="auto" fill-opacity="1" contentScriptType="text/ecmascript" color-interpolation="auto" color-rendering="auto" preserveAspectRatio="xMidYMid meet" font-size="12" viewBox="0 0 683 129" fill="black" stroke="black" image-rendering="auto" stroke-miterlimit="10" zoomAndPan="magnify" version="1.0" stroke-linecap="square" stroke-linejoin="miter" contentStyleType="text/css" font-style="normal" height="129" stroke-width="1" stroke-dashoffset="0" font-weight="normal" stroke-opacity="1">
<!--Generated by the Batik Graphics2D SVG Generator-->
<defs id="genericDefs"/>
<g>
<defs id="defs1">
<clipPath clipPathUnits="userSpaceOnUse" id="clipPath1">
<path d="M9 9 L145 9 L145 111 L9 111 L9 9 Z"/>
</clipPath>
<clipPath clipPathUnits="userSpaceOnUse" id="clipPath2">
<path d="M48 12 L111 12 L111 29 L48 29 L48 12 Z"/>
</clipPath>
<clipPath clipPathUnits="userSpaceOnUse" id="clipPath3">
<path d="M14 30 L140 30 L140 47 L14 47 L14 30 Z"/>
</clipPath>
<clipPath clipPathUnits="userSpaceOnUse" id="clipPath4">
<path d="M9 28 L145 28 L145 63 L9 63 L9 28 Z"/>
</clipPath>
<clipPath clipPathUnits="userSpaceOnUse" id="clipPath5">
<path d="M9 62 L145 62 L145 89 L9 89 L9 62 Z"/>
</clipPath>
<clipPath clipPathUnits="userSpaceOnUse" id="clipPath6">
<path d="M9 88 L145 88 L145 111 L9 111 L9 88 Z"/>
</clipPath>
<clipPath clipPathUnits="userSpaceOnUse" id="clipPath7">
<path d="M514 9 L674 9 L674 120 L514 120 L514 9 Z"/>
</clipPath>
<clipPath clipPathUnits="userSpaceOnUse" id="clipPath8">
<path d="M574 12 L620 12 L620 29 L574 29 L574 12 Z"/>
</clipPath>
<clipPath clipPathUnits="userSpaceOnUse" id="clipPath9">
<path d="M519 30 L669 30 L669 47 L519 47 L519 30 Z"/>
</clipPath>
<clipPath clipPathUnits="userSpaceOnUse" id="clipPath10">
<path d="M519 45 L668 45 L668 62 L519 62 L519 45 Z"/>
</clipPath>
<clipPath clipPathUnits="userSpaceOnUse" id="clipPath11">
<path d="M514 28 L674 28 L674 76 L514 76 L514 28 Z"/>
</clipPath>
<clipPath clipPathUnits="userSpaceOnUse" id="clipPath12">
<path d="M514 75 L674 75 L674 100 L514 100 L514 75 Z"/>
</clipPath>
<clipPath clipPathUnits="userSpaceOnUse" id="clipPath13">
<path d="M514 99 L674 99 L674 120 L514 120 L514 99 Z"/>
</clipPath>
<clipPath clipPathUnits="userSpaceOnUse" id="clipPath14">
<path d="M-1 -1 L684 -1 L684 130 L-1 130 L-1 -1 Z"/>
</clipPath>
<clipPath clipPathUnits="userSpaceOnUse" id="clipPath15">
<path d="M140 38 L231 38 L231 55 L140 55 L140 38 Z"/>
</clipPath>
<clipPath clipPathUnits="userSpaceOnUse" id="clipPath16">
<path d="M348 38 L505 38 L505 55 L348 55 L348 38 Z"/>
</clipPath>
<clipPath clipPathUnits="userSpaceOnUse" id="clipPath17">
<path d="M143 61 L158 61 L158 68 L143 68 L143 61 Z"/>
</clipPath>
<clipPath clipPathUnits="userSpaceOnUse" id="clipPath18">
<path d="M496 57 L517 57 L517 72 L496 72 L496 57 Z"/>
</clipPath>
</defs>
<g font-size="13" fill="white" stroke-linejoin="round" stroke="white" stroke-width="0" stroke-miterlimit="0">
<rect x="10" y="10" clip-path="url(#clipPath1)" width="134" height="100" stroke="none"/>
<text x="49" y="26" clip-path="url(#clipPath2)" fill="black" stroke="none" xml:space="preserve">Company</text>
<text x="15" y="44" clip-path="url(#clipPath3)" fill="black" stroke="none" xml:space="preserve"> + name: String [1]</text>
</g>
<g stroke-width="1.1" font-size="13" stroke-linecap="butt">
<line clip-path="url(#clipPath4)" fill="none" x1="10" x2="144" y1="29" y2="29"/>
<line clip-path="url(#clipPath5)" fill="none" x1="10" x2="144" y1="63" y2="63"/>
<line clip-path="url(#clipPath6)" fill="none" x1="10" x2="144" y1="89" y2="89"/>
<rect x="10" y="10" clip-path="url(#clipPath1)" fill="none" width="133" height="99"/>
<rect x="515" y="10" clip-path="url(#clipPath7)" fill="white" width="158" height="109" stroke="none"/>
<text xml:space="preserve" x="575" y="26" clip-path="url(#clipPath8)" stroke="none">Person</text>
<text xml:space="preserve" x="520" y="44" clip-path="url(#clipPath9)" stroke="none"> + firstname: String [1]</text>
<text xml:space="preserve" x="520" y="59" clip-path="url(#clipPath10)" stroke="none"> + lastname: String [1]</text>
<line clip-path="url(#clipPath11)" fill="none" x1="515" x2="673" y1="29" y2="29"/>
<line clip-path="url(#clipPath12)" fill="none" x1="515" x2="673" y1="76" y2="76"/>
<line clip-path="url(#clipPath13)" fill="none" x1="515" x2="673" y1="100" y2="100"/>
<rect x="515" y="10" clip-path="url(#clipPath7)" fill="none" width="157" height="108"/>
<line clip-path="url(#clipPath14)" fill="none" text-rendering="optimizeLegibility" x1="144" x2="515" y1="64" y2="64"/>
<text x="141" y="52" clip-path="url(#clipPath15)" text-rendering="optimizeLegibility" stroke="none" xml:space="preserve">  company [1]</text>
<text x="349" y="52" clip-path="url(#clipPath16)" text-rendering="optimizeLegibility" stroke="none" xml:space="preserve">  employee [*] {unique}</text>
<polygon text-rendering="optimizeLegibility" clip-path="url(#clipPath17)" points=" 144 64 147 62 150 64 156 62 150 64 156 66 150 64 147 66" stroke="none"/>
<polygon fill="none" text-rendering="optimizeLegibility" clip-path="url(#clipPath17)" points=" 144 64 147 62 150 64 156 62 150 64 156 66 150 64 147 66"/>
<polygon text-rendering="optimizeLegibility" clip-path="url(#clipPath18)" points=" 515 65 513 67 511 67 509 65 509 64 497 70 509 64 497 58 509 64 509 63 511 61 513 61 515 63" stroke="none"/>
<polygon fill="none" text-rendering="optimizeLegibility" clip-path="url(#clipPath18)" points=" 515 65 513 67 511 67 509 65 509 64 497 70 509 64 497 58 509 64 509 63 511 61 513 61 515 63"/>
</g>
</g>
</svg>
