<?xml version="1.0" encoding="UTF-8"?>
<svg xmlns="http://www.w3.org/2000/svg" xmlns:xlink="http://www.w3.org/1999/xlink" stroke-dasharray="none" shape-rendering="auto" font-family="'Dialog'" width="792" text-rendering="auto" fill-opacity="1" contentScriptType="text/ecmascript" color-interpolation="auto" color-rendering="auto" preserveAspectRatio="xMidYMid meet" font-size="12" viewBox="0 0 792 386" fill="black" stroke="black" image-rendering="auto" stroke-miterlimit="10" zoomAndPan="magnify" version="1.0" stroke-linecap="square" stroke-linejoin="miter" contentStyleType="text/css" font-style="normal" height="386" stroke-width="1" stroke-dashoffset="0" font-weight="normal" stroke-opacity="1">
<!--Generated by the Batik Graphics2D SVG Generator-->
<defs id="genericDefs"/>
<g>
<defs id="defs1">
<clipPath clipPathUnits="userSpaceOnUse" id="clipPath1">
<path d="M127 9 L258 9 L258 122 L127 122 L127 9 Z"/>
</clipPath>
<clipPath clipPathUnits="userSpaceOnUse" id="clipPath2">
<path d="M172 12 L218 12 L218 31 L172 31 L172 12 Z"/>
</clipPath>
<clipPath clipPathUnits="userSpaceOnUse" id="clipPath3">
<path d="M132 32 L253 32 L253 49 L132 49 L132 32 Z"/>
</clipPath>
<clipPath clipPathUnits="userSpaceOnUse" id="clipPath4">
<path d="M132 47 L248 47 L248 64 L132 64 L132 47 Z"/>
</clipPath>
<clipPath clipPathUnits="userSpaceOnUse" id="clipPath5">
<path d="M127 30 L258 30 L258 78 L127 78 L127 30 Z"/>
</clipPath>
<clipPath clipPathUnits="userSpaceOnUse" id="clipPath6">
<path d="M127 77 L258 77 L258 102 L127 102 L127 77 Z"/>
</clipPath>
<clipPath clipPathUnits="userSpaceOnUse" id="clipPath7">
<path d="M127 101 L258 101 L258 122 L127 122 L127 101 Z"/>
</clipPath>
<clipPath clipPathUnits="userSpaceOnUse" id="clipPath8">
<path d="M519 13 L655 13 L655 115 L519 115 L519 13 Z"/>
</clipPath>
<clipPath clipPathUnits="userSpaceOnUse" id="clipPath9">
<path d="M561 16 L618 16 L618 35 L561 35 L561 16 Z"/>
</clipPath>
<clipPath clipPathUnits="userSpaceOnUse" id="clipPath10">
<path d="M524 36 L650 36 L650 55 L524 55 L524 36 Z"/>
</clipPath>
<clipPath clipPathUnits="userSpaceOnUse" id="clipPath11">
<path d="M519 34 L655 34 L655 69 L519 69 L519 34 Z"/>
</clipPath>
<clipPath clipPathUnits="userSpaceOnUse" id="clipPath12">
<path d="M519 68 L655 68 L655 94 L519 94 L519 68 Z"/>
</clipPath>
<clipPath clipPathUnits="userSpaceOnUse" id="clipPath13">
<path d="M519 93 L655 93 L655 115 L519 115 L519 93 Z"/>
</clipPath>
<clipPath clipPathUnits="userSpaceOnUse" id="clipPath14">
<path d="M50 248 L176 248 L176 350 L50 350 L50 248 Z"/>
</clipPath>
<clipPath clipPathUnits="userSpaceOnUse" id="clipPath15">
<path d="M81 251 L151 251 L151 270 L81 270 L81 251 Z"/>
</clipPath>
<clipPath clipPathUnits="userSpaceOnUse" id="clipPath16">
<path d="M55 271 L171 271 L171 288 L55 288 L55 271 Z"/>
</clipPath>
<clipPath clipPathUnits="userSpaceOnUse" id="clipPath17">
<path d="M50 269 L176 269 L176 303 L50 303 L50 269 Z"/>
</clipPath>
<clipPath clipPathUnits="userSpaceOnUse" id="clipPath18">
<path d="M50 302 L176 302 L176 329 L50 329 L50 302 Z"/>
</clipPath>
<clipPath clipPathUnits="userSpaceOnUse" id="clipPath19">
<path d="M50 328 L176 328 L176 350 L50 350 L50 328 Z"/>
</clipPath>
<clipPath clipPathUnits="userSpaceOnUse" id="clipPath20">
<path d="M323 105 L449 105 L449 207 L323 207 L323 105 Z"/>
</clipPath>
<clipPath clipPathUnits="userSpaceOnUse" id="clipPath21">
<path d="M371 108 L407 108 L407 127 L371 127 L371 108 Z"/>
</clipPath>
<clipPath clipPathUnits="userSpaceOnUse" id="clipPath22">
<path d="M328 128 L444 128 L444 145 L328 145 L328 128 Z"/>
</clipPath>
<clipPath clipPathUnits="userSpaceOnUse" id="clipPath23">
<path d="M323 126 L449 126 L449 160 L323 160 L323 126 Z"/>
</clipPath>
<clipPath clipPathUnits="userSpaceOnUse" id="clipPath24">
<path d="M323 159 L449 159 L449 186 L323 186 L323 159 Z"/>
</clipPath>
<clipPath clipPathUnits="userSpaceOnUse" id="clipPath25">
<path d="M323 185 L449 185 L449 207 L323 207 L323 185 Z"/>
</clipPath>
<clipPath clipPathUnits="userSpaceOnUse" id="clipPath26">
<path d="M523 253 L654 253 L654 377 L523 377 L523 253 Z"/>
</clipPath>
<clipPath clipPathUnits="userSpaceOnUse" id="clipPath27">
<path d="M526 256 L654 256 L654 275 L526 275 L526 256 Z"/>
</clipPath>
<clipPath clipPathUnits="userSpaceOnUse" id="clipPath28">
<path d="M540 274 L642 274 L642 293 L540 293 L540 274 Z"/>
</clipPath>
<clipPath clipPathUnits="userSpaceOnUse" id="clipPath29">
<path d="M528 294 L560 294 L560 313 L528 313 L528 294 Z"/>
</clipPath>
<clipPath clipPathUnits="userSpaceOnUse" id="clipPath30">
<path d="M528 311 L573 311 L573 330 L528 330 L528 311 Z"/>
</clipPath>
<clipPath clipPathUnits="userSpaceOnUse" id="clipPath31">
<path d="M528 328 L584 328 L584 347 L528 347 L528 328 Z"/>
</clipPath>
<clipPath clipPathUnits="userSpaceOnUse" id="clipPath32">
<path d="M528 345 L586 345 L586 364 L528 364 L528 345 Z"/>
</clipPath>
<clipPath clipPathUnits="userSpaceOnUse" id="clipPath33">
<path d="M523 292 L654 292 L654 377 L523 377 L523 292 Z"/>
</clipPath>
<clipPath clipPathUnits="userSpaceOnUse" id="clipPath34">
<path d="M-1 -1 L793 -1 L793 387 L-1 387 L-1 -1 Z"/>
</clipPath>
<clipPath clipPathUnits="userSpaceOnUse" id="clipPath35">
<path d="M106 136 L190 136 L190 155 L106 155 L106 136 Z"/>
</clipPath>
<clipPath clipPathUnits="userSpaceOnUse" id="clipPath36">
<path d="M22 41 L124 41 L124 60 L22 60 L22 41 Z"/>
</clipPath>
<clipPath clipPathUnits="userSpaceOnUse" id="clipPath37">
<path d="M112 59 L130 59 L130 72 L112 72 L112 59 Z"/>
</clipPath>
<clipPath clipPathUnits="userSpaceOnUse" id="clipPath38">
<path d="M185 120 L200 120 L200 141 L185 141 L185 120 Z"/>
</clipPath>
<clipPath clipPathUnits="userSpaceOnUse" id="clipPath39">
<path d="M415 28 L506 28 L506 47 L415 47 L415 28 Z"/>
</clipPath>
<clipPath clipPathUnits="userSpaceOnUse" id="clipPath40">
<path d="M264 28 L372 28 L372 47 L264 47 L264 28 Z"/>
</clipPath>
<clipPath clipPathUnits="userSpaceOnUse" id="clipPath41">
<path d="M256 47 L274 47 L274 60 L256 60 L256 47 Z"/>
</clipPath>
<clipPath clipPathUnits="userSpaceOnUse" id="clipPath42">
<path d="M501 46 L522 46 L522 61 L501 61 L501 46 Z"/>
</clipPath>
<clipPath clipPathUnits="userSpaceOnUse" id="clipPath43">
<path d="M594 172 L770 172 L770 191 L594 191 L594 172 Z"/>
</clipPath>
<clipPath clipPathUnits="userSpaceOnUse" id="clipPath44">
<path d="M593 124 L669 124 L669 143 L593 143 L593 124 Z"/>
</clipPath>
<clipPath clipPathUnits="userSpaceOnUse" id="clipPath45">
<path d="M554 126 L581 126 L581 145 L554 145 L554 126 Z"/>
</clipPath>
<clipPath clipPathUnits="userSpaceOnUse" id="clipPath46">
<path d="M625 224 L706 224 L706 243 L625 243 L625 224 Z"/>
</clipPath>
<clipPath clipPathUnits="userSpaceOnUse" id="clipPath47">
<path d="M593 224 L621 224 L621 243 L593 243 L593 224 Z"/>
</clipPath>
<clipPath clipPathUnits="userSpaceOnUse" id="clipPath48">
<path d="M580 235 L595 235 L595 256 L580 256 L580 235 Z"/>
</clipPath>
</defs>
<g fill="white" stroke-width="0" stroke-miterlimit="0" stroke-linejoin="round" stroke="white">
<rect x="128" y="10" clip-path="url(#clipPath1)" width="129" height="111" stroke="none"/>
<text font-size="13" x="173" y="26" clip-path="url(#clipPath2)" fill="black" stroke="none" xml:space="preserve">Person</text>
<text x="133" y="45" clip-path="url(#clipPath3)" fill="black" stroke="none" xml:space="preserve"> + name: String [1]</text>
<text x="133" y="60" clip-path="url(#clipPath4)" fill="black" stroke="none" xml:space="preserve"> + age: Integer [1]</text>
</g>
<g stroke-linecap="butt" stroke-width="1.1">
<line clip-path="url(#clipPath5)" fill="none" x1="128" x2="257" y1="31" y2="31"/>
<line clip-path="url(#clipPath6)" fill="none" x1="128" x2="257" y1="78" y2="78"/>
<line clip-path="url(#clipPath7)" fill="none" x1="128" x2="257" y1="102" y2="102"/>
<rect x="128" y="10" clip-path="url(#clipPath1)" fill="none" width="128" height="110"/>
<rect x="520" y="14" clip-path="url(#clipPath8)" fill="white" width="134" height="100" stroke="none"/>
<text font-size="13" x="562" y="30" clip-path="url(#clipPath9)" stroke="none" xml:space="preserve">Program</text>
<text font-size="13" x="525" y="50" clip-path="url(#clipPath10)" stroke="none" xml:space="preserve"> + name: String [1]</text>
<line clip-path="url(#clipPath11)" fill="none" x1="520" x2="654" y1="35" y2="35"/>
<line clip-path="url(#clipPath12)" fill="none" x1="520" x2="654" y1="69" y2="69"/>
<line clip-path="url(#clipPath13)" fill="none" x1="520" x2="654" y1="94" y2="94"/>
<rect x="520" y="14" clip-path="url(#clipPath8)" fill="none" width="133" height="99"/>
<rect x="51" y="249" clip-path="url(#clipPath14)" fill="white" width="124" height="100" stroke="none"/>
<text font-size="13" x="82" y="265" clip-path="url(#clipPath15)" stroke="none" xml:space="preserve">Friendship</text>
<text xml:space="preserve" x="56" y="284" clip-path="url(#clipPath16)" stroke="none"> + weight: Real [1]</text>
<line clip-path="url(#clipPath17)" fill="none" x1="51" x2="175" y1="270" y2="270"/>
<line clip-path="url(#clipPath18)" fill="none" x1="51" x2="175" y1="303" y2="303"/>
<line clip-path="url(#clipPath19)" fill="none" x1="51" x2="175" y1="329" y2="329"/>
<rect x="51" y="249" clip-path="url(#clipPath14)" fill="none" width="123" height="99"/>
<rect x="324" y="106" clip-path="url(#clipPath20)" fill="white" width="124" height="100" stroke="none"/>
<text font-size="13" x="372" y="122" clip-path="url(#clipPath21)" stroke="none" xml:space="preserve">Work</text>
<text xml:space="preserve" x="329" y="141" clip-path="url(#clipPath22)" stroke="none"> + weight: Real [1]</text>
<line clip-path="url(#clipPath23)" fill="none" x1="324" x2="448" y1="127" y2="127"/>
<line clip-path="url(#clipPath24)" fill="none" x1="324" x2="448" y1="160" y2="160"/>
<line clip-path="url(#clipPath25)" fill="none" x1="324" x2="448" y1="186" y2="186"/>
<rect x="324" y="106" clip-path="url(#clipPath20)" fill="none" width="123" height="99"/>
<rect x="524" y="254" clip-path="url(#clipPath26)" fill="white" width="129" height="122" stroke="none"/>
<text font-size="13" x="542" y="270" clip-path="url(#clipPath27)" stroke="none" xml:space="preserve">«Enumeration»</text>
<text font-size="13" x="541" y="288" clip-path="url(#clipPath28)" stroke="none" xml:space="preserve">LanguageEnum</text>
<text font-size="13" x="529" y="308" clip-path="url(#clipPath29)" stroke="none" xml:space="preserve">JAVA</text>
<text font-size="13" x="529" y="325" clip-path="url(#clipPath30)" stroke="none" xml:space="preserve">SCALA</text>
<text font-size="13" x="529" y="342" clip-path="url(#clipPath31)" stroke="none" xml:space="preserve">PYTHON</text>
<text font-size="13" x="529" y="359" clip-path="url(#clipPath32)" stroke="none" xml:space="preserve">GROOVY</text>
<line clip-path="url(#clipPath33)" fill="none" x1="524" x2="653" y1="293" y2="293"/>
<rect x="524" y="254" clip-path="url(#clipPath26)" fill="none" width="128" height="121"/>
<line clip-path="url(#clipPath34)" fill="none" text-rendering="optimizeLegibility" x1="128" x2="30" y1="65" y2="65"/>
<line clip-path="url(#clipPath34)" fill="none" text-rendering="optimizeLegibility" x1="30" x2="30" y1="65" y2="195"/>
<line clip-path="url(#clipPath34)" fill="none" text-rendering="optimizeLegibility" x1="30" x2="192" y1="195" y2="195"/>
<line clip-path="url(#clipPath34)" fill="none" text-rendering="optimizeLegibility" x1="192" x2="192" y1="195" y2="121"/>
<text font-size="13" x="107" y="150" clip-path="url(#clipPath35)" text-rendering="optimizeLegibility" stroke="none" xml:space="preserve"> + knows [*]</text>
<text font-size="13" x="23" y="55" clip-path="url(#clipPath36)" text-rendering="optimizeLegibility" stroke="none" xml:space="preserve"> + knownBy [*]</text>
<line clip-path="url(#clipPath37)" fill="none" text-rendering="optimizeLegibility" x1="113" x2="128" y1="70" y2="65"/>
<line clip-path="url(#clipPath37)" fill="none" text-rendering="optimizeLegibility" x1="128" x2="113" y1="65" y2="60"/>
<polygon text-rendering="optimizeLegibility" clip-path="url(#clipPath38)" points=" 193 121 195 123 195 125 193 127 192 127 198 139 192 127 186 139 192 127 191 127 189 125 189 123 191 121" stroke="none"/>
<polygon fill="none" text-rendering="optimizeLegibility" clip-path="url(#clipPath38)" points=" 193 121 195 123 195 125 193 127 192 127 198 139 192 127 186 139 192 127 191 127 189 125 189 123 191 121"/>
<line clip-path="url(#clipPath34)" fill="none" text-rendering="optimizeLegibility" x1="113" x2="113" y1="195" y2="249" stroke-dasharray="6.6,3.3"/>
<line clip-path="url(#clipPath34)" fill="none" text-rendering="optimizeLegibility" x1="257" x2="520" y1="53" y2="53"/>
<text font-size="13" x="416" y="42" clip-path="url(#clipPath39)" text-rendering="optimizeLegibility" stroke="none" xml:space="preserve"> + created [*]</text>
<text font-size="13" x="265" y="42" clip-path="url(#clipPath40)" text-rendering="optimizeLegibility" stroke="none" xml:space="preserve"> + createdBy [*]</text>
<line clip-path="url(#clipPath41)" fill="none" text-rendering="optimizeLegibility" x1="272" x2="257" y1="48" y2="53"/>
<line clip-path="url(#clipPath41)" fill="none" text-rendering="optimizeLegibility" x1="257" x2="272" y1="53" y2="58"/>
<polygon text-rendering="optimizeLegibility" clip-path="url(#clipPath42)" points=" 520 54 518 56 516 56 514 54 514 53 502 59 514 53 502 47 514 53 514 52 516 50 518 50 520 52" stroke="none"/>
<polygon fill="none" text-rendering="optimizeLegibility" clip-path="url(#clipPath42)" points=" 520 54 518 56 516 56 514 54 514 53 502 59 514 53 502 47 514 53 514 52 516 50 518 50 520 52"/>
<line clip-path="url(#clipPath34)" fill="none" text-rendering="optimizeLegibility" x1="386" x2="386" y1="53" y2="106" stroke-dasharray="6.6,3.3"/>
<line clip-path="url(#clipPath34)" fill="none" text-rendering="optimizeLegibility" x1="587" x2="587" y1="114" y2="254"/>
<text font-size="13" x="595" y="186" clip-path="url(#clipPath43)" text-rendering="optimizeLegibility" stroke="none" xml:space="preserve">program_languageEnum_1</text>
<text font-size="13" x="594" y="138" clip-path="url(#clipPath44)" text-rendering="optimizeLegibility" stroke="none" xml:space="preserve"> + program</text>
<text font-size="13" x="555" y="140" clip-path="url(#clipPath45)" text-rendering="optimizeLegibility" stroke="none" xml:space="preserve">  [*]</text>
<text font-size="13" x="626" y="238" clip-path="url(#clipPath46)" text-rendering="optimizeLegibility" stroke="none" xml:space="preserve"> + language</text>
<text font-size="13" x="594" y="238" clip-path="url(#clipPath47)" text-rendering="optimizeLegibility" stroke="none" xml:space="preserve">  [1]</text>
<polygon text-rendering="optimizeLegibility" clip-path="url(#clipPath48)" points=" 586 254 584 252 584 250 586 248 587 248 581 236 587 248 593 236 587 248 588 248 590 250 590 252 588 254" stroke="none"/>
<polygon fill="none" text-rendering="optimizeLegibility" clip-path="url(#clipPath48)" points=" 586 254 584 252 584 250 586 248 587 248 581 236 587 248 593 236 587 248 588 248 590 250 590 252 588 254"/>
</g>
</g>
</svg>
